<svg width="16" height="16" viewBox="0 0 16 16" fill="none" xmlns="http://www.w3.org/2000/svg">
<rect width="16" height="16" fill="#333333"/>
<g clip-path="url(#clip0_0_1)" filter="url(#filter0_d_0_1)">
<rect width="1440" height="900" transform="translate(-64 -390)" fill="#F6F6F6"/>
<rect width="256" height="820" transform="translate(-64 -310)" fill="#412884"/>
<rect x="-11.5" y="-11.5" width="39" height="39" rx="19.5" stroke="#F6F6F6"/>
<path fill-rule="evenodd" clip-rule="evenodd" d="M1.08141 15.9933H3.81993L3.82659 16C4.19306 16 4.32632 15.9933 4.47291 15.96C4.61283 15.9267 4.7461 15.8734 4.86603 15.8001C4.99929 15.7201 5.09257 15.6268 5.35243 15.3669L14.5475 6.17076C14.9539 5.76426 15.2471 5.47105 15.467 5.21116C15.7002 4.93794 15.8268 4.7247 15.9001 4.50479C16.0333 4.09829 16.0333 3.66514 15.9001 3.25864C15.8268 3.03207 15.7002 2.82549 15.467 2.55227C15.2471 2.29238 14.9406 1.97918 14.5475 1.59267L14.4075 1.45273C14.0144 1.05956 13.7079 0.75302 13.448 0.533111C13.1749 0.299875 12.9616 0.173261 12.7418 0.0999584C12.3353 -0.0333195 11.9022 -0.0333195 11.4958 0.0999584C11.2692 0.173261 11.0627 0.299875 10.7895 0.533111C10.5536 0.727697 10.2858 0.996251 9.95661 1.32611L9.82801 1.45473L0.63299 10.6509C0.386457 10.8975 0.279848 11.0041 0.199892 11.1374C0.126598 11.2573 0.0732936 11.3839 0.0399783 11.5239C0 11.6705 0 11.8171 0 12.1703V14.9158C0 15.1224 0 15.2556 0.00666306 15.3556C0.0199892 15.4756 0.0399783 15.5555 0.0732936 15.6222C0.139924 15.7488 0.246533 15.8554 0.366468 15.9154C0.439762 15.9554 0.519718 15.9753 0.639654 15.982C0.739599 15.9887 0.872861 15.9887 1.07942 15.9887L1.08141 15.9933ZM11.6757 0.733028C11.8156 0.686381 11.9555 0.666389 12.0954 0.666389L12.1021 0.653061C12.242 0.653061 12.382 0.673053 12.5219 0.7197C12.6551 0.766347 12.8017 0.859642 13.0016 1.02624C13.2415 1.22616 13.5413 1.52603 13.9211 1.90587L14.0611 2.04581C14.4408 2.42566 14.7407 2.72553 14.9406 2.96543C15.1072 3.16535 15.2071 3.31195 15.2471 3.44523C15.3337 3.71845 15.3337 4.01166 15.2471 4.28488C15.2004 4.41816 15.1072 4.56476 14.9406 4.76468C14.7407 5.00458 14.4542 5.29113 14.0611 5.6843L13.7632 5.98217L9.99192 2.21041L10.2791 1.92253C10.6589 1.54269 10.9587 1.24948 11.1986 1.0429C11.3985 0.876302 11.5451 0.776343 11.6783 0.73636L11.6757 0.733028ZM9.51684 2.67888L1.05476 11.142C0.828218 11.3686 0.754924 11.4419 0.721609 11.5019C0.681631 11.5618 0.654979 11.6285 0.641652 11.6951C0.628326 11.7618 0.621663 11.8684 0.621663 12.1883V14.9338C0.621663 15.1137 0.621663 15.2337 0.628326 15.3203C0.734935 15.3469 0.85487 15.3469 1.03477 15.3403H3.77995C4.07979 15.3403 4.19972 15.3403 4.27302 15.3203C4.34631 15.307 4.41294 15.2736 4.47291 15.2403C4.53288 15.2003 4.6195 15.1204 4.83272 14.9071L13.2948 6.44398L9.52351 2.67222L9.51684 2.67888Z" fill="#F6F6F6"/>
</g>
<defs>
<filter id="filter0_d_0_1" x="-68" y="-390" width="1448" height="908" filterUnits="userSpaceOnUse" color-interpolation-filters="sRGB">
<feFlood flood-opacity="0" result="BackgroundImageFix"/>
<feColorMatrix in="SourceAlpha" type="matrix" values="0 0 0 0 0 0 0 0 0 0 0 0 0 0 0 0 0 0 127 0" result="hardAlpha"/>
<feOffset dy="4"/>
<feGaussianBlur stdDeviation="2"/>
<feComposite in2="hardAlpha" operator="out"/>
<feColorMatrix type="matrix" values="0 0 0 0 0 0 0 0 0 0 0 0 0 0 0 0 0 0 0.25 0"/>
<feBlend mode="normal" in2="BackgroundImageFix" result="effect1_dropShadow_0_1"/>
<feBlend mode="normal" in="SourceGraphic" in2="effect1_dropShadow_0_1" result="shape"/>
</filter>
<clipPath id="clip0_0_1">
<rect width="1440" height="900" fill="white" transform="translate(-64 -390)"/>
</clipPath>
</defs>
</svg>
