<svg width="19" height="16" viewBox="0 0 19 16" fill="none" xmlns="http://www.w3.org/2000/svg">
<path d="M0.5 2C0.5 1.60218 0.658036 1.22064 0.93934 0.93934C1.22064 0.658036 1.60218 0.5 2 0.5H17C17.3978 0.5 17.7794 0.658036 18.0607 0.93934C18.342 1.22064 18.5 1.60218 18.5 2C18.5 2.39782 18.342 2.77936 18.0607 3.06066C17.7794 3.34196 17.3978 3.5 17 3.5H2C1.60218 3.5 1.22064 3.34196 0.93934 3.06066C0.658036 2.77936 0.5 2.39782 0.5 2ZM3.5 8C3.5 7.60218 3.65804 7.22064 3.93934 6.93934C4.22064 6.65804 4.60218 6.5 5 6.5H14C14.3978 6.5 14.7794 6.65804 15.0607 6.93934C15.342 7.22064 15.5 7.60218 15.5 8C15.5 8.39782 15.342 8.77936 15.0607 9.06066C14.7794 9.34196 14.3978 9.5 14 9.5H5C4.60218 9.5 4.22064 9.34196 3.93934 9.06066C3.65804 8.77936 3.5 8.39782 3.5 8ZM8 12.5C7.60218 12.5 7.22064 12.658 6.93934 12.9393C6.65804 13.2206 6.5 13.6022 6.5 14C6.5 14.3978 6.65804 14.7794 6.93934 15.0607C7.22064 15.342 7.60218 15.5 8 15.5H11C11.3978 15.5 11.7794 15.342 12.0607 15.0607C12.342 14.7794 12.5 14.3978 12.5 14C12.5 13.6022 12.342 13.2206 12.0607 12.9393C11.7794 12.658 11.3978 12.5 11 12.5H8Z" fill="#F6F6F6"/>
</svg>
