<svg width="16" height="16" viewBox="0 0 16 16" fill="none" xmlns="http://www.w3.org/2000/svg">
<rect width="16" height="16" fill="#333333"/>
<g clip-path="url(#clip0_0_1)" filter="url(#filter0_d_0_1)">
<rect width="1440" height="900" transform="translate(-120 -390)" fill="#F6F6F6"/>
<rect width="256" height="820" transform="translate(-120 -310)" fill="#412884"/>
<rect x="-11.5" y="-11.5" width="39" height="39" rx="19.5" stroke="#F6F6F6"/>
<path d="M3 8.5C3.26522 8.5 3.51957 8.39464 3.70711 8.20711C3.89464 8.01957 4 7.76522 4 7.5C4 7.23478 3.89464 6.98043 3.70711 6.79289C3.51957 6.60536 3.26522 6.5 3 6.5C2.73478 6.5 2.48043 6.60536 2.29289 6.79289C2.10536 6.98043 2 7.23478 2 7.5C2 7.76522 2.10536 8.01957 2.29289 8.20711C2.48043 8.39464 2.73478 8.5 3 8.5Z" fill="#F6F6F6"/>
<path fill-rule="evenodd" clip-rule="evenodd" d="M4.50001 3C6.06002 3 7.44002 3.794 8.25002 5H13.51C13.6672 4.99995 13.8222 5.03695 13.9624 5.10802C14.1026 5.17908 14.2241 5.2822 14.317 5.409L15.807 7.449C15.9272 7.61147 15.9948 7.80683 16.0007 8.00883C16.0066 8.21083 15.9505 8.40979 15.84 8.579L14.58 10.529C14.5073 10.6417 14.4126 10.7386 14.3015 10.8139C14.1905 10.8891 14.0654 10.9412 13.9337 10.967C13.8021 10.9927 13.6666 10.9917 13.5354 10.9639C13.4041 10.936 13.2799 10.882 13.17 10.805L12.02 10L10.83 10.812C10.6636 10.9259 10.4667 10.9869 10.265 10.9869C10.0634 10.9869 9.8664 10.9259 9.70002 10.812L8.51002 10H8.25202C7.44402 11.21 6.07201 12 4.50201 12C3.30854 12 2.16395 11.5259 1.32003 10.682C0.47612 9.83807 0.00201416 8.69347 0.00201416 7.5C0.00201416 6.30653 0.47612 5.16193 1.32003 4.31802C2.16395 3.47411 3.30854 3 4.50201 3H4.50001ZM8.25002 9C8.08551 8.99987 7.92352 9.04032 7.77839 9.11776C7.63326 9.19521 7.50948 9.30727 7.41802 9.444C6.78802 10.384 5.71801 11.004 4.50801 11.004C2.57801 11.004 1.00801 9.434 1.00801 7.504C1.00801 5.574 2.57801 4.004 4.50801 4.004C5.71801 4.004 6.78802 4.62 7.41802 5.564C7.60402 5.841 7.91602 6.008 8.25002 6.008H13.51L15 8.048L13.74 9.998L12.59 9.193C12.4231 9.07614 12.2245 9.01304 12.0208 9.01214C11.8171 9.01125 11.6179 9.07261 11.45 9.188L10.26 10L9.07001 9.188C8.90336 9.07384 8.70603 9.01282 8.50401 9.013H8.24602L8.25002 9Z" fill="#F6F6F6"/>
</g>
<defs>
<filter id="filter0_d_0_1" x="-124" y="-390" width="1448" height="908" filterUnits="userSpaceOnUse" color-interpolation-filters="sRGB">
<feFlood flood-opacity="0" result="BackgroundImageFix"/>
<feColorMatrix in="SourceAlpha" type="matrix" values="0 0 0 0 0 0 0 0 0 0 0 0 0 0 0 0 0 0 127 0" result="hardAlpha"/>
<feOffset dy="4"/>
<feGaussianBlur stdDeviation="2"/>
<feComposite in2="hardAlpha" operator="out"/>
<feColorMatrix type="matrix" values="0 0 0 0 0 0 0 0 0 0 0 0 0 0 0 0 0 0 0.25 0"/>
<feBlend mode="normal" in2="BackgroundImageFix" result="effect1_dropShadow_0_1"/>
<feBlend mode="normal" in="SourceGraphic" in2="effect1_dropShadow_0_1" result="shape"/>
</filter>
<clipPath id="clip0_0_1">
<rect width="1440" height="900" fill="white" transform="translate(-120 -390)"/>
</clipPath>
</defs>
</svg>
