<svg width="36" height="38" viewBox="0 0 36 38" fill="none" xmlns="http://www.w3.org/2000/svg">
<rect width="36" height="38" fill="#333333"/>
<g clip-path="url(#clip0_0_1)" filter="url(#filter0_d_0_1)">
<rect width="1440" height="900" transform="translate(-1246 -24)" fill="#F6F6F6"/>
<rect width="1440" height="80" transform="translate(-1246 -24)" fill="#412884"/>
<g filter="url(#filter1_d_0_1)">
<path d="M17.9333 24C18.4 24 18.7947 23.8387 19.1173 23.516C19.44 23.1933 19.6009 22.7991 19.6 22.3333C19.5991 21.8675 19.4382 21.4729 19.1173 21.1493C18.7965 20.8258 18.4018 20.6649 17.9333 20.6667C17.4649 20.6684 17.0707 20.8298 16.7507 21.1507C16.4307 21.4715 16.2693 21.8658 16.2667 22.3333C16.264 22.8009 16.4253 23.1955 16.7507 23.5173C17.076 23.8391 17.4702 24 17.9333 24ZM16.7333 18.8667H19.2C19.2 18.1333 19.2836 17.5555 19.4507 17.1333C19.6178 16.7111 20.0898 16.1333 20.8667 15.4C21.4445 14.8222 21.9 14.272 22.2333 13.7493C22.5667 13.2267 22.7333 12.5991 22.7333 11.8667C22.7333 10.6222 22.2778 9.66666 21.3667 9C20.4556 8.33333 19.3778 8 18.1333 8C16.8667 8 15.8391 8.33333 15.0507 9C14.2622 9.66666 13.712 10.4667 13.4 11.4L15.6 12.2667C15.7111 11.8667 15.9613 11.4333 16.3507 10.9667C16.74 10.5 17.3342 10.2667 18.1333 10.2667C18.8445 10.2667 19.3778 10.4613 19.7333 10.8507C20.0889 11.24 20.2667 11.6676 20.2667 12.1333C20.2667 12.5778 20.1333 12.9947 19.8667 13.384C19.6 13.7733 19.2667 14.1342 18.8667 14.4667C17.8889 15.3333 17.2889 15.9889 17.0667 16.4333C16.8445 16.8778 16.7333 17.6889 16.7333 18.8667ZM18 29.3333C16.1556 29.3333 14.4222 28.9835 12.8 28.284C11.1778 27.5844 9.76667 26.6342 8.56667 25.4333C7.36667 24.2324 6.4169 22.8213 5.71734 21.2C5.01778 19.5787 4.66756 17.8453 4.66667 16C4.66578 14.1547 5.01601 12.4213 5.71734 10.8C6.41867 9.17866 7.36845 7.76755 8.56667 6.56666C9.7649 5.36577 11.176 4.416 12.8 3.71733C14.424 3.01866 16.1573 2.66844 18 2.66666C19.8427 2.66489 21.576 3.01511 23.2 3.71733C24.824 4.41955 26.2351 5.36933 27.4333 6.56666C28.6316 7.764 29.5818 9.17511 30.284 10.8C30.9862 12.4249 31.336 14.1582 31.3333 16C31.3307 17.8418 30.9805 19.5751 30.2827 21.2C29.5849 22.8249 28.6351 24.236 27.4333 25.4333C26.2316 26.6307 24.8205 27.5809 23.2 28.284C21.5796 28.9871 19.8462 29.3369 18 29.3333ZM18 26.6667C20.9778 26.6667 23.5 25.6333 25.5667 23.5667C27.6333 21.5 28.6667 18.9778 28.6667 16C28.6667 13.0222 27.6333 10.5 25.5667 8.43333C23.5 6.36666 20.9778 5.33333 18 5.33333C15.0222 5.33333 12.5 6.36666 10.4333 8.43333C8.36667 10.5 7.33334 13.0222 7.33334 16C7.33334 18.9778 8.36667 21.5 10.4333 23.5667C12.5 25.6333 15.0222 26.6667 18 26.6667Z" fill="#F6F6F6"/>
</g>
</g>
<defs>
<filter id="filter0_d_0_1" x="-1250" y="-24" width="1448" height="908" filterUnits="userSpaceOnUse" color-interpolation-filters="sRGB">
<feFlood flood-opacity="0" result="BackgroundImageFix"/>
<feColorMatrix in="SourceAlpha" type="matrix" values="0 0 0 0 0 0 0 0 0 0 0 0 0 0 0 0 0 0 127 0" result="hardAlpha"/>
<feOffset dy="4"/>
<feGaussianBlur stdDeviation="2"/>
<feComposite in2="hardAlpha" operator="out"/>
<feColorMatrix type="matrix" values="0 0 0 0 0 0 0 0 0 0 0 0 0 0 0 0 0 0 0.25 0"/>
<feBlend mode="normal" in2="BackgroundImageFix" result="effect1_dropShadow_0_1"/>
<feBlend mode="normal" in="SourceGraphic" in2="effect1_dropShadow_0_1" result="shape"/>
</filter>
<filter id="filter1_d_0_1" x="-2" y="0" width="40" height="40" filterUnits="userSpaceOnUse" color-interpolation-filters="sRGB">
<feFlood flood-opacity="0" result="BackgroundImageFix"/>
<feColorMatrix in="SourceAlpha" type="matrix" values="0 0 0 0 0 0 0 0 0 0 0 0 0 0 0 0 0 0 127 0" result="hardAlpha"/>
<feOffset dy="4"/>
<feGaussianBlur stdDeviation="2"/>
<feComposite in2="hardAlpha" operator="out"/>
<feColorMatrix type="matrix" values="0 0 0 0 0 0 0 0 0 0 0 0 0 0 0 0 0 0 0.25 0"/>
<feBlend mode="normal" in2="BackgroundImageFix" result="effect1_dropShadow_0_1"/>
<feBlend mode="normal" in="SourceGraphic" in2="effect1_dropShadow_0_1" result="shape"/>
</filter>
<clipPath id="clip0_0_1">
<rect width="1440" height="900" fill="white" transform="translate(-1246 -24)"/>
</clipPath>
</defs>
</svg>
