<svg width="32" height="32" viewBox="0 0 32 32" fill="none" xmlns="http://www.w3.org/2000/svg">
<rect width="32" height="32" rx="16" fill="#F6F6F6"/>
<g clip-path="url(#clip0_826_490)">
<path d="M12.9055 17.8075C12.9055 17.5989 12.8695 17.2861 12.8336 16.9037C12.7976 16.5214 12.6897 16.139 12.5099 15.7567C12.33 15.3743 12.0783 15.0615 11.7186 14.7487C11.359 14.4706 10.8914 14.3316 10.3159 14.3316C9.88434 14.3316 9.48871 14.4011 9.20099 14.5401C8.91326 14.6791 8.66149 14.8877 8.4457 15.0963C8.26586 15.3396 8.08604 15.5829 7.97814 15.861C7.87023 16.139 7.7983 16.4171 7.72637 16.6952C7.69041 16.9733 7.69041 17.2166 7.65444 17.4251V18.3289C7.65444 18.5374 7.69041 18.7808 7.72637 19.0241C7.76234 19.2674 7.83427 19.5455 7.94218 19.7888C8.05007 20.0668 8.19393 20.3102 8.37377 20.5187C8.55359 20.7273 8.80536 20.9011 9.09308 21.0401C9.38081 21.1791 9.74048 21.2487 10.1721 21.2487C10.7116 21.2487 11.1432 21.1444 11.5028 20.9011C11.8625 20.6925 12.1142 20.3797 12.33 20.0321C12.5099 19.6845 12.6537 19.3021 12.7616 18.9198C12.8695 18.5374 12.9055 18.1898 12.9055 17.8075ZM7.69041 14.7139C7.76234 14.6096 7.83427 14.4706 7.97814 14.2968C8.08604 14.123 8.26586 13.9492 8.51763 13.7754C8.73342 13.6016 9.05712 13.4626 9.41678 13.3583C9.77644 13.254 10.208 13.1845 10.7475 13.1845C11.2151 13.1845 11.7186 13.254 12.2581 13.3931C12.7976 13.5321 13.2652 13.8449 13.6967 14.2968C13.8047 14.4358 13.9125 14.5749 14.0564 14.7834C14.2003 14.9572 14.3082 15.2005 14.4161 15.4786C14.524 15.7567 14.6319 16.0695 14.6678 16.4171C14.7398 16.7647 14.7757 17.2166 14.7757 17.7032C14.7757 18.5722 14.7038 19.2674 14.524 19.754C14.3441 20.2754 14.1283 20.6577 13.9125 20.9706C13.5529 21.492 13.0853 21.8743 12.5099 22.1176C11.9344 22.361 11.323 22.5 10.6756 22.5C10.4598 22.5 10.1361 22.4652 9.77644 22.3957C9.38081 22.3262 9.02115 22.1872 8.62552 21.9091C8.37377 21.7353 8.19393 21.5963 8.05007 21.4225C7.94218 21.2834 7.83427 21.1096 7.72637 21.0053L7.69041 22.361H6L6.03597 20.762V9.5H7.69041V14.7139Z" fill="#FF6600"/>
<path d="M15.4233 13.4278H17.1497V22.3957H15.4233V13.4278Z" fill="#FF6600"/>
<path d="M17.9769 14.4706L17.9409 13.4278H19.6673L19.7033 14.8877C19.7392 14.7835 19.8471 14.6444 19.955 14.4706C20.0629 14.2968 20.2428 14.123 20.4585 13.9492C20.6744 13.7754 20.9621 13.6017 21.3217 13.4626C21.6814 13.3236 22.113 13.2541 22.6525 13.2541C22.8683 13.2541 23.156 13.2888 23.5157 13.3583C23.8753 13.4278 24.271 13.5669 24.6307 13.7754C24.9903 13.984 25.3141 14.2968 25.6017 14.6792C25.8535 15.0963 25.9974 15.6177 25.9974 16.3129V22.3958H24.2349V16.6952C24.2349 16.3824 24.199 16.1043 24.1271 15.861C24.0551 15.5829 23.9473 15.3744 23.7314 15.1658C23.5157 14.9573 23.2639 14.8182 22.9762 14.7139C22.6884 14.6097 22.4007 14.5749 22.113 14.5749C21.7893 14.5749 21.5016 14.6444 21.2138 14.7487C20.9261 14.853 20.6744 15.0268 20.4585 15.2353C20.2428 15.4439 20.0629 15.7567 19.9191 16.0696C19.7752 16.4172 19.7033 16.7995 19.7033 17.2514V22.3958H17.9769V14.4706Z" fill="#FF6600"/>
<path d="M15.2073 9.53479H17.2933V11.5508H15.2073V9.53479Z" fill="#FF6600"/>
</g>
<defs>
<clipPath id="clip0_826_490">
<rect width="20" height="13" fill="white" transform="translate(6 9.5)"/>
</clipPath>
</defs>
</svg>
