<svg width="32" height="32" viewBox="0 0 32 32" fill="none" xmlns="http://www.w3.org/2000/svg">
<rect width="32" height="32" rx="16" fill="#F6F6F6"/>
<g clip-path="url(#clip0_822_207)">
<path d="M5.57202 13.6641V15.4064C7.59208 15.318 8.23081 16.3191 8.23081 16.3191C8.02366 13.8356 5.57202 13.6641 5.57202 13.6641Z" fill="#A80A35"/>
<path d="M8.23071 16.3191C8.23071 16.3191 8.86944 15.318 10.8895 15.4064V13.6641C10.8895 13.6641 8.43788 13.8356 8.23071 16.3191Z" fill="#A80A35"/>
<path d="M8.23267 16.3171C8.23267 16.3171 9.23374 16.9559 9.14535 18.9759H10.8877C10.8877 18.9759 10.7162 16.5243 8.23267 16.3171Z" fill="#A80A35"/>
<path d="M3.85306 21.4845H5.66037C5.29423 17.0855 8.22887 16.3171 8.22887 16.3171C3.49069 16.5174 3.85306 21.4845 3.85306 21.4845Z" fill="#A80A35"/>
<path d="M10.7531 12.5488H5.7083C5.01914 12.5488 4.46045 13.1075 4.46045 13.7967V17.4259C4.6501 17.1866 4.86364 16.9577 5.10435 16.7446V13.8623C5.10435 13.4925 5.40412 13.1927 5.7739 13.1927H10.6876C11.0573 13.1927 11.3571 13.4925 11.3571 13.8623V18.7759C11.3571 19.1457 11.0573 19.4455 10.6876 19.4455H6.29156V20.0893H10.7531C11.4423 20.0893 12.001 19.5307 12.001 18.8415V13.7967C12.001 13.1075 11.4423 12.5488 10.7531 12.5488Z" fill="#F68C1F"/>
<path d="M14.7647 15.7595C14.9185 15.6254 15.0236 15.4345 15.0236 15.1907C15.0236 14.8169 14.7607 14.5894 14.4735 14.5163V14.5041C14.7688 14.3944 14.9266 14.1669 14.9266 13.915C14.9266 13.6794 14.8133 13.5006 14.6434 13.3991C14.4613 13.2731 14.2307 13.2244 13.8666 13.2244C13.5834 13.2244 13.2962 13.2528 13.1384 13.2853V15.9748C13.2679 15.9911 13.4742 16.0114 13.7493 16.0114C14.2509 16.0114 14.5705 15.9261 14.7647 15.7595ZM13.632 13.6144C13.6846 13.6022 13.7695 13.5941 13.9151 13.5941C14.2307 13.5941 14.4249 13.7119 14.4249 13.9719C14.4249 14.2035 14.2348 14.366 13.8868 14.366H13.632V13.6144ZM13.632 14.7276H13.8787C14.2226 14.7276 14.5018 14.8576 14.5018 15.1785C14.5018 15.5157 14.2145 15.6336 13.8949 15.6336C13.7816 15.6336 13.6967 15.6336 13.632 15.6214L13.632 14.7276Z" fill="#A80A35"/>
<path d="M16.4233 15.7635H16.4354L16.4718 15.9829H16.9208C16.8966 15.8611 16.8885 15.6864 16.8885 15.5076V14.7966C16.8885 14.3619 16.7064 13.9597 16.0753 13.9597C15.7638 13.9597 15.5089 14.045 15.3633 14.1344L15.4604 14.4594C15.5939 14.3741 15.7962 14.3132 15.9903 14.3132C16.3383 14.3132 16.3909 14.5285 16.3909 14.6585V14.691C15.6626 14.6869 15.2217 14.9429 15.2217 15.4385C15.2217 15.7392 15.4442 16.0276 15.8407 16.0276C16.0996 16.0276 16.306 15.9179 16.4233 15.7635ZM15.7153 15.3857C15.7153 15.0851 16.0511 15.0119 16.403 15.016V15.2882C16.403 15.3248 16.403 15.3613 16.3909 15.3979C16.3424 15.5401 16.2008 15.6701 15.9985 15.6701C15.8407 15.6701 15.7153 15.5807 15.7153 15.3857Z" fill="#A80A35"/>
<path d="M18.2236 14.366C18.4946 14.366 18.5998 14.5813 18.5998 14.8657V15.9829H19.0974V14.8088C19.0974 14.1832 18.7414 13.9597 18.3975 13.9597C18.0698 13.9597 17.8554 14.1466 17.7664 14.301H17.7543L17.73 14.0044H17.2971C17.3052 14.1751 17.3133 14.366 17.3133 14.5935V15.9829H17.8109V14.8169C17.8109 14.7601 17.819 14.6991 17.8352 14.6585C17.8878 14.5082 18.0254 14.366 18.2236 14.366Z" fill="#A80A35"/>
<path d="M20.4163 16.0235C20.6631 16.0235 20.8694 15.9707 20.9746 15.922L20.9059 15.5523C20.8088 15.5929 20.6834 15.6294 20.5134 15.6294C20.1736 15.6294 19.9106 15.3979 19.9106 14.9916C19.9066 14.63 20.1331 14.3497 20.5134 14.3497C20.6914 14.3497 20.8088 14.3863 20.8897 14.4269L20.9787 14.049C20.8654 14.0003 20.6793 13.9597 20.4972 13.9597C19.8054 13.9597 19.4009 14.4187 19.4009 15.0119C19.4009 15.6254 19.8014 16.0235 20.4163 16.0235Z" fill="#A80A35"/>
<path d="M23.0781 14.9754C23.0781 14.3741 22.6857 13.9597 22.0991 13.9597C21.5044 13.9597 21.0796 14.3579 21.0796 15.0079C21.0796 15.6457 21.5125 16.0276 22.0667 16.0276C22.5684 16.0276 23.0781 15.7026 23.0781 14.9754ZM21.5934 14.9957C21.5934 14.6666 21.735 14.3213 22.0869 14.3213C22.4268 14.3213 22.5643 14.6788 22.5643 14.9876C22.5643 15.3898 22.3661 15.666 22.0829 15.666C21.7835 15.6661 21.5934 15.3776 21.5934 14.9957Z" fill="#A80A35"/>
<path d="M24.8419 16.0276C25.1251 16.0276 25.3638 15.8895 25.4811 15.6701H25.4892L25.5135 15.9829H25.9544C25.9463 15.8489 25.9383 15.6295 25.9383 15.4263V13.0984H25.4407V14.2156H25.4326C25.3436 14.0694 25.1494 13.9597 24.8783 13.9597C24.405 13.9597 23.9923 14.3538 23.9964 15.016C23.9964 15.6254 24.3686 16.0276 24.8419 16.0276ZM24.9997 14.3457C25.2262 14.3457 25.384 14.5041 25.4285 14.695C25.4366 14.7357 25.4407 14.7885 25.4407 14.8291V15.1257C25.4407 15.1785 25.4366 15.2273 25.4245 15.272C25.3759 15.4873 25.1979 15.6254 24.9956 15.6254C24.6801 15.6254 24.5021 15.3613 24.5021 14.9957C24.5021 14.63 24.6801 14.3457 24.9997 14.3457Z" fill="#A80A35"/>
<path d="M27.233 16.0276C27.7346 16.0276 28.2444 15.7026 28.2444 14.9754C28.2444 14.3741 27.8519 13.9597 27.2653 13.9597C26.6706 13.9597 26.2458 14.3579 26.2458 15.0079C26.2458 15.6457 26.6787 16.0276 27.233 16.0276ZM27.2532 14.3213C27.593 14.3213 27.7306 14.6788 27.7306 14.9876C27.7306 15.3898 27.5323 15.666 27.2492 15.666C26.9498 15.666 26.7596 15.3776 26.7596 14.9957C26.7596 14.6666 26.9012 14.3213 27.2532 14.3213Z" fill="#A80A35"/>
<path d="M14.8092 17.4053C14.8092 17.8197 14.8214 18.1894 14.8578 18.551H14.8497C14.7243 18.2422 14.5665 17.901 14.4047 17.6125L13.8383 16.609H13.1182V19.3473H13.6846V18.5225C13.6846 18.0756 13.6765 17.6897 13.6562 17.3241H13.6724C13.8019 17.645 13.9839 17.9985 14.1458 18.291L14.7283 19.3473H15.3757V16.609H14.8093V17.4053H14.8092Z" fill="#A80A35"/>
<path d="M16.6701 17.3119C16.0308 17.3119 15.6101 17.7222 15.6101 18.3682C15.6101 19.0101 16.0551 19.392 16.6336 19.392C17.1636 19.392 17.6774 19.0589 17.6774 18.3316C17.6774 17.7303 17.2728 17.3119 16.6701 17.3119ZM16.6498 18.9492C16.3869 18.9492 16.2453 18.6932 16.2453 18.352C16.2453 18.0595 16.3586 17.7547 16.6498 17.7547C16.929 17.7547 17.0423 18.0554 17.0423 18.3479C17.0423 18.7095 16.8926 18.9492 16.6498 18.9492Z" fill="#A80A35"/>
<path d="M18.4543 17.7263H18.4381L18.4139 17.3606H17.8879C17.9001 17.5313 17.9041 17.7222 17.9041 18.0147V19.3473H18.519V18.3398C18.519 18.291 18.5231 18.2422 18.5312 18.2016C18.5716 18.0107 18.7254 17.8888 18.9519 17.8888C19.0207 17.8888 19.0693 17.8969 19.1178 17.905V17.3241C19.0733 17.316 19.045 17.3119 18.9883 17.3119C18.7941 17.3119 18.5554 17.4338 18.4543 17.7263Z" fill="#A80A35"/>
<path d="M21.1727 16.4628H20.5578V17.5353H20.5497C20.4607 17.4012 20.2746 17.3119 20.0278 17.3119C19.5545 17.3119 19.1378 17.7019 19.1419 18.3722C19.1419 18.9898 19.5181 19.392 19.9874 19.392C20.2423 19.392 20.485 19.2782 20.6064 19.0588H20.6185L20.6428 19.3473H21.189C21.1809 19.2132 21.1728 18.9776 21.1728 18.7541V16.4628H21.1727ZM20.5578 18.4616C20.5578 18.5104 20.5538 18.5591 20.5457 18.6038C20.5093 18.7785 20.3636 18.9004 20.1856 18.9004C19.9308 18.9004 19.7649 18.6891 19.7649 18.3519C19.7649 18.0391 19.9065 17.7872 20.1897 17.7872C20.3798 17.7872 20.5133 17.9253 20.5497 18.0878C20.5578 18.1244 20.5578 18.1691 20.5578 18.2016L20.5578 18.4616Z" fill="#A80A35"/>
<path d="M22.3987 17.316C21.7109 17.316 21.3994 17.8726 21.3994 18.3763C21.3994 18.9979 21.7838 19.388 22.4553 19.388C22.7223 19.388 22.9691 19.3473 23.1714 19.262L23.0905 18.8435C22.9246 18.9004 22.7547 18.9289 22.5443 18.9289C22.2571 18.9289 22.0022 18.807 21.986 18.551H23.2604C23.2685 18.5063 23.2806 18.4129 23.2806 18.3073C23.2806 17.8157 23.0379 17.316 22.3987 17.316ZM21.982 18.1285C21.9982 17.966 22.1034 17.7263 22.3623 17.7263C22.6455 17.7263 22.7102 17.9782 22.7102 18.1285H21.982Z" fill="#A80A35"/>
<path d="M24.3404 18.1326C24.0976 18.0473 24.0208 17.9985 24.0208 17.901C24.0208 17.8035 24.1058 17.7425 24.2554 17.7425C24.4213 17.7425 24.5953 17.8075 24.6843 17.8563L24.7895 17.4297C24.6681 17.3688 24.4658 17.3119 24.2352 17.3119C23.7457 17.3119 23.4301 17.5922 23.4301 17.966C23.4261 18.2016 23.5839 18.4251 23.9965 18.5632C24.2231 18.6404 24.2838 18.6892 24.2838 18.7948C24.2838 18.8964 24.2069 18.9573 24.0208 18.9573C23.8388 18.9573 23.6041 18.8801 23.4908 18.811L23.3816 19.2498C23.5313 19.3311 23.7619 19.392 24.0208 19.392C24.5872 19.392 24.8744 19.1198 24.8744 18.746C24.8704 18.4576 24.7166 18.2626 24.3404 18.1326Z" fill="#A80A35"/>
<path d="M25.7847 16.8243L25.1819 16.9909V17.3606H24.9189V17.8157H25.1819V18.6282C25.1819 18.9085 25.2385 19.0995 25.3518 19.2173C25.453 19.3188 25.6188 19.3879 25.8171 19.3879C25.987 19.3879 26.1367 19.3635 26.2135 19.3351L26.2095 18.8679C26.1529 18.8801 26.1124 18.8841 26.0275 18.8841C25.8454 18.8841 25.7847 18.7744 25.7847 18.5348V17.8157H26.2257V17.3606H25.7847V16.8243Z" fill="#A80A35"/>
<path d="M27.2937 17.316C26.606 17.316 26.2944 17.8726 26.2944 18.3763C26.2944 18.9979 26.6788 19.388 27.3503 19.388C27.6173 19.388 27.8641 19.3473 28.0664 19.262L27.9855 18.8435C27.8196 18.9004 27.6497 18.9289 27.4393 18.9289C27.1521 18.9289 26.8972 18.807 26.881 18.551H28.1554C28.1635 18.5063 28.1756 18.4129 28.1756 18.3073C28.1756 17.8157 27.9329 17.316 27.2937 17.316ZM26.877 18.1285C26.8932 17.966 26.9984 17.7263 27.2573 17.7263C27.5405 17.7263 27.6052 17.9782 27.6052 18.1285H26.877Z" fill="#A80A35"/>
</g>
<defs>
<clipPath id="clip0_822_207">
<rect width="25" height="25" fill="white" transform="translate(3.5 3.5)"/>
</clipPath>
</defs>
</svg>
