<svg width="32" height="32" viewBox="0 0 32 32" fill="none" xmlns="http://www.w3.org/2000/svg">
<rect width="32" height="32" rx="16" fill="#F6F6F6"/>
<g clip-path="url(#clip0_826_527)">
<path d="M17.6051 19.319H18.7207C18.7315 19.3198 18.7424 19.3183 18.7527 19.3145C18.763 19.3108 18.7724 19.3048 18.7805 19.2971C18.7885 19.2894 18.7949 19.28 18.7994 19.2695C18.8039 19.2591 18.8063 19.2478 18.8065 19.2363V15.9877C18.8065 15.0665 19.2358 14.5811 19.9768 14.5811C20.7178 14.5811 21.1392 15.0665 21.1392 15.9877V19.2367C21.1394 19.2482 21.1418 19.2595 21.1463 19.27C21.1508 19.2804 21.1572 19.2898 21.1653 19.2975C21.1733 19.3052 21.1827 19.3112 21.193 19.3149C21.2033 19.3187 21.2142 19.3202 21.225 19.3194H22.3406C22.3514 19.3202 22.3623 19.3187 22.3726 19.3149C22.3829 19.3112 22.3923 19.3052 22.4004 19.2975C22.4084 19.2898 22.4148 19.2804 22.4193 19.27C22.4238 19.2595 22.4262 19.2482 22.4264 19.2367V15.996C22.4264 14.6057 21.6933 13.3884 19.9766 13.3884C18.2599 13.3884 17.5193 14.6057 17.5193 15.996V19.2367C17.5196 19.2482 17.522 19.2594 17.5265 19.2698C17.531 19.2802 17.5375 19.2896 17.5455 19.2972C17.5536 19.3049 17.563 19.3108 17.5732 19.3146C17.5835 19.3183 17.5943 19.3198 17.6051 19.319Z" fill="#00A868"/>
<path d="M9.92836 19.3932C10.3341 19.3932 10.5992 19.3438 10.7162 19.2944C10.7337 19.287 10.7488 19.2747 10.7599 19.2586C10.7709 19.2426 10.7775 19.2236 10.7788 19.2039V18.2327C10.7788 18.175 10.7552 18.1421 10.6851 18.1421C10.6304 18.1421 10.4744 18.175 10.3495 18.175C9.86583 18.175 9.65535 17.9859 9.65535 17.5417V14.8032H10.6851C10.7078 14.803 10.7295 14.7934 10.7455 14.7765C10.7616 14.7596 10.7707 14.7367 10.7709 14.7127V13.6516C10.7707 13.6277 10.7616 13.6048 10.7455 13.5879C10.7295 13.5709 10.7078 13.5613 10.6851 13.5611H9.61636V12.6399C9.61636 12.5411 9.57714 12.5 9.50699 12.5H8.45376C8.36811 12.5 8.3291 12.5413 8.3291 12.6399V17.682C8.3291 18.9078 8.97645 19.3932 9.92836 19.3932Z" fill="#00A868"/>
<path d="M5.45066 19.4588C6.70675 19.4588 7.60397 18.6445 7.60397 17.5834C7.60397 16.3906 6.85493 16.0453 5.83304 15.8149L5.32582 15.6998C4.94365 15.6093 4.73296 15.42 4.73296 15.0993C4.73296 14.6881 5.12297 14.466 5.66135 14.466C6.41806 14.466 6.93292 14.8278 7.01091 14.8278C7.0326 14.8263 7.0535 14.8186 7.07137 14.8056C7.08925 14.7926 7.10344 14.7747 7.11245 14.7538L7.31528 13.956C7.3545 13.8489 7.34645 13.8244 7.27609 13.7832C6.82357 13.5365 6.33986 13.3966 5.65332 13.3966C4.38175 13.3966 3.5 14.1699 3.5 15.1981C3.5 16.1693 4.21006 16.7033 5.22469 16.9339L5.73955 17.049C6.15307 17.1395 6.38631 17.3123 6.38631 17.6824C6.38631 18.0607 6.10546 18.3897 5.44224 18.3897C4.506 18.3897 3.8663 17.995 3.76498 17.995C3.70245 17.995 3.67913 18.0279 3.65581 18.1347L3.52313 18.8011C3.48393 18.9408 3.52313 19.0313 3.60897 19.0724C3.92902 19.2615 4.80273 19.4588 5.45066 19.4588Z" fill="#00A868"/>
<path d="M13.9619 18.3155C13.1427 18.3155 12.394 17.6656 12.394 16.4401C12.394 15.2145 13.1429 14.5803 13.9619 14.5803C14.7888 14.5803 15.5221 15.2136 15.5221 16.4401C15.5221 17.6739 14.7888 18.3155 13.9619 18.3155ZM13.9619 19.5C15.6002 19.5 16.7937 18.2087 16.7937 16.4401C16.7937 14.6714 15.6002 13.3884 13.9619 13.3884C12.3313 13.3884 11.1299 14.6716 11.1299 16.4401C11.1299 18.2085 12.3313 19.5 13.9619 19.5Z" fill="#00A868"/>
<path d="M28.5 16.3743C28.5 14.5559 27.5091 13.3884 25.9326 13.3884C24.4503 13.3884 23.1709 14.5894 23.1709 16.4155C23.1709 18.3649 24.4815 19.5 25.8857 19.5C27.0638 19.5 27.7435 19.0105 28.1639 18.4143C28.2452 18.2988 28.2619 18.249 28.2619 18.2168C28.2619 18.1845 28.2423 18.1593 28.1715 18.0928L27.68 17.6404C27.5624 17.5336 27.5232 17.5006 27.484 17.5006C27.4448 17.5006 27.4215 17.5253 27.3903 17.5665C27.0548 18.0436 26.5868 18.3149 25.9549 18.3149C25.1578 18.3149 24.6267 17.744 24.4919 16.8178H28.092C28.343 16.8184 28.5 16.7351 28.5 16.3743ZM25.8863 14.5317C26.7377 14.5317 27.1883 15.1374 27.2128 15.8067H24.5109C24.6588 15.088 25.1216 14.5317 25.8863 14.5317Z" fill="#00A868"/>
</g>
<defs>
<clipPath id="clip0_826_527">
<rect width="25" height="7" fill="white" transform="translate(3.5 12.5)"/>
</clipPath>
</defs>
</svg>
